<svg id="Layer_1" data-name="Layer 1" xmlns="http://www.w3.org/2000/svg" viewBox="0 0 512 512"><defs><style>.cls-1{fill:#6d4135;}.cls-2{fill:#ffd38d;}.cls-3{opacity:0.1;}</style></defs><title>wheel-cart-flat</title><path class="cls-1" d="M163.82,368.64a20.48,20.48,0,0,1-20.06-16.46L85.61,61.44H20.48a20.48,20.48,0,0,1,0-41H102.4a20.48,20.48,0,0,1,20.08,16.46l61.44,307.2a20.49,20.49,0,0,1-20.1,24.5Z"/><path class="cls-2" d="M511.59,147.35l-41,204.8a20.49,20.49,0,0,1-20.07,16.49H163.84a20.49,20.49,0,0,1-20.07-16.49l-41-204.8a20.4,20.4,0,0,1,4.2-17,20.63,20.63,0,0,1,15.87-7.47H491.52a20.63,20.63,0,0,1,15.87,7.47A20.4,20.4,0,0,1,511.59,147.35Z"/><circle class="cls-1" cx="225.28" cy="450.56" r="40.96"/><circle class="cls-1" cx="389.12" cy="450.56" r="40.96"/><polygon class="cls-1" points="126.57 266.24 487.82 266.24 496.01 225.28 118.38 225.28 126.57 266.24"/><g class="cls-3"><path d="M511.59,147.35l-41,204.8a20.49,20.49,0,0,1-20.07,16.49H307.2V122.88H491.52a20.63,20.63,0,0,1,15.87,7.47A20.4,20.4,0,0,1,511.59,147.35Z"/></g></svg>